<svg width="13" height="10" viewBox="0 0 13 10" fill="none" xmlns="http://www.w3.org/2000/svg">
<path fill-rule="evenodd" clip-rule="evenodd" d="M0.150476 6.03175C0.375117 6.29384 0.769675 6.32417 1.03176 6.0995L6.45833 1.44818L11.8849 6.0995C12.147 6.32417 12.5416 6.29384 12.7662 6.03175C12.9908 5.76967 12.9605 5.37509 12.6984 5.1505L6.86508 0.150469C6.631 -0.0501563 6.28567 -0.0501563 6.05158 0.150469L0.218267 5.1505C-0.0438079 5.37509 -0.0741661 5.76967 0.150476 6.03175Z" fill="#CA4A05"/>
<path d="M0.62503 9.58331C0.36348 9.58331 0.129597 9.42048 0.0388551 9.17515C-0.0518949 8.92981 0.0197052 8.65398 0.218288 8.48381L6.05165 3.48381C6.28565 3.28315 6.63107 3.28315 6.86507 3.48381L12.6984 8.48381C12.897 8.65398 12.9687 8.92981 12.8779 9.17515C12.7872 9.42048 12.5532 9.58331 12.2917 9.58331H0.62503Z" fill="#CA4A05"/>
</svg>
