<svg width="14" height="14" viewBox="0 0 14 14" fill="none" xmlns="http://www.w3.org/2000/svg">
<path d="M6.50401 7.55045L6.67808 7.32892C8.91001 7.38185 10.9858 8.46265 12.2935 10.2435C11.1102 12.1011 9.03234 13.3333 6.66668 13.3333C5.81181 13.3333 4.99455 13.1723 4.24349 12.8792C5.94214 12.5001 7.57381 11.7624 8.99541 10.7662C9.22161 10.6077 9.27641 10.2959 9.11794 10.0698C8.95948 9.84365 8.64768 9.78879 8.42154 9.94725C6.75721 11.1136 4.79515 11.8891 2.81003 12.1051C2.22376 11.6887 1.70773 11.1797 1.2832 10.5996C3.33488 10.2795 5.20793 9.19945 6.50401 7.55045Z" fill="#4B1847"/>
<path d="M5.83113 6.78826L5.71773 6.93253C4.49279 8.49106 2.67833 9.47286 0.710506 9.6646C0.255987 8.76333 0 7.74486 0 6.6666C0 4.84765 0.728453 3.19886 1.90955 1.99602L1.9087 1.99979C1.54547 3.62278 1.52527 5.29493 1.84874 6.92426C1.90251 7.19513 2.16567 7.37113 2.43653 7.31733C2.70739 7.2636 2.88337 7.0004 2.82959 6.72953C2.4477 4.80592 2.58833 2.81642 3.25288 0.939104C3.95418 0.520197 4.73887 0.226451 5.57613 0.0886841L5.4566 0.372577C4.57738 2.46066 4.72129 4.82636 5.83113 6.78826Z" fill="#4B1847"/>
<path d="M6.72073 6.32973C5.7452 4.62964 5.61466 2.57389 6.37813 0.76064L6.6984 0C9.75453 0.01428 12.3247 2.08493 13.0965 4.8994C11.6408 3.67736 9.90573 2.83937 8.05367 2.45134C7.7834 2.39471 7.5184 2.56791 7.4618 2.83819C7.40513 3.10846 7.57833 3.37347 7.8486 3.43009C9.81686 3.84245 11.6391 4.81077 13.0827 6.23873L13.084 6.24007L13.3309 6.48847C13.3325 6.54767 13.3333 6.60707 13.3333 6.6666C13.3333 7.59173 13.1448 8.47287 12.8043 9.27367C11.3094 7.47227 9.0916 6.3914 6.72073 6.32973Z" fill="#4B1847"/>
</svg>
