<svg width="19" height="19" viewBox="0 0 19 19" fill="none" xmlns="http://www.w3.org/2000/svg">
<g clip-path="url(#clip0_2893_3326)">
<path d="M9.5 0C4.25307 0 0 4.25307 0 9.5C0 14.7469 4.25307 19 9.5 19C14.7469 19 19 14.7469 19 9.5C19 4.25307 14.7469 0 9.5 0ZM9.5 17.5156C5.07296 17.5156 1.48438 13.927 1.48438 9.5C1.48438 5.07296 5.07296 1.48438 9.5 1.48438C13.927 1.48438 17.5156 5.07296 17.5156 9.5C17.5156 13.927 13.927 17.5156 9.5 17.5156Z" fill="#535353"/>
<path d="M6.60237 11.5746L6.12109 11.9202C6.37507 12.2733 6.68122 12.5853 7.03202 12.8445L7.38515 12.3684C7.08364 12.1452 6.82038 11.8785 6.60237 11.5746Z" fill="#535353"/>
<path d="M5.34424 9.47797V9.50001C5.34424 9.92966 5.40977 10.3535 5.53906 10.76L6.10268 10.5802C5.9925 10.2323 5.93684 9.86876 5.93684 9.50001L5.34424 9.47797Z" fill="#535353"/>
<path d="M6.14938 7.0415C5.89136 7.39289 5.69015 7.78139 5.55273 8.19479L6.11576 8.38093C6.23232 8.02609 6.4051 7.69326 6.62661 7.39289L6.14938 7.0415Z" fill="#535353"/>
<path d="M8.18408 13.4429C8.59518 13.5809 9.02602 13.6516 9.4632 13.6563L9.46899 13.0637C9.09326 13.0602 8.72451 12.9993 8.37078 12.881L8.18408 13.4429Z" fill="#535353"/>
<path d="M8.22949 5.54205C7.8155 5.67542 7.42526 5.87314 7.06982 6.12827L7.41772 6.60839C7.72039 6.38978 8.05497 6.22049 8.4104 6.10682L8.22949 5.54205Z" fill="#535353"/>
<path d="M10.7945 5.549C10.3822 5.41448 9.95138 5.34549 9.51189 5.34375L9.51074 5.93635C9.88647 5.93809 10.257 5.99665 10.6095 6.11203L10.7945 5.549Z" fill="#535353"/>
<path d="M12.3618 11.6245L12.8379 11.9788C13.0988 11.6274 13.3017 11.2406 13.4403 10.8278L12.879 10.64C12.7596 10.9919 12.5862 11.323 12.3618 11.6245Z" fill="#535353"/>
<path d="M13.4542 8.21857L12.8906 8.40063C13.0048 8.75547 13.064 9.12485 13.064 9.49999L13.4797 9.53131L13.656 9.51161C13.656 9.0628 13.5882 8.63197 13.4542 8.21857Z" fill="#535353"/>
<path d="M10.5698 12.9002L10.7478 13.4655C11.163 13.335 11.5544 13.1402 11.9104 12.8868L11.5665 12.4038C11.2616 12.6212 10.9259 12.7882 10.5698 12.9002Z" fill="#535353"/>
<path d="M12.8655 7.06007C12.6104 6.70868 12.3019 6.39908 11.9482 6.14276L11.5991 6.61995C11.9018 6.84146 12.1668 7.10701 12.386 7.40912L12.8655 7.06007Z" fill="#535353"/>
</g>
<defs>
<clipPath id="clip0_2893_3326">
<rect width="19" height="19" fill="white"/>
</clipPath>
</defs>
</svg>
