<svg width="14" height="14" viewBox="0 0 14 14" fill="none" xmlns="http://www.w3.org/2000/svg">
<path fill-rule="evenodd" clip-rule="evenodd" d="M2.16667 5.86973V4.5C2.16667 2.01472 4.18139 0 6.66667 0C9.15193 0 11.1667 2.01472 11.1667 4.5V5.86973C11.9099 5.92527 12.3938 6.06533 12.7475 6.41913C13.3333 7.00493 13.3333 7.94773 13.3333 9.83333C13.3333 11.7189 13.3333 12.6617 12.7475 13.2475C12.1617 13.8333 11.2189 13.8333 9.33333 13.8333H4C2.11438 13.8333 1.17157 13.8333 0.585787 13.2475C0 12.6617 0 11.7189 0 9.83333C0 7.94773 0 7.00493 0.585787 6.41913C0.93954 6.06533 1.4235 5.92527 2.16667 5.86973ZM3.16667 4.5C3.16667 2.56701 4.73367 1 6.66667 1C8.59967 1 10.1667 2.56701 10.1667 4.5V5.83573C9.91133 5.83333 9.63433 5.83333 9.33333 5.83333H4C3.69899 5.83333 3.42201 5.83333 3.16667 5.83573V4.5ZM4 10.5C4.36819 10.5 4.66667 10.2015 4.66667 9.83333C4.66667 9.46513 4.36819 9.16667 4 9.16667C3.63181 9.16667 3.33333 9.46513 3.33333 9.83333C3.33333 10.2015 3.63181 10.5 4 10.5ZM6.66667 10.5C7.03487 10.5 7.33333 10.2015 7.33333 9.83333C7.33333 9.46513 7.03487 9.16667 6.66667 9.16667C6.29847 9.16667 6 9.46513 6 9.83333C6 10.2015 6.29847 10.5 6.66667 10.5ZM10 9.83333C10 10.2015 9.70153 10.5 9.33333 10.5C8.96513 10.5 8.66667 10.2015 8.66667 9.83333C8.66667 9.46513 8.96513 9.16667 9.33333 9.16667C9.70153 9.16667 10 9.46513 10 9.83333Z" fill="#818181"/>
</svg>
