<svg width="14" height="14" viewBox="0 0 14 14" fill="none" xmlns="http://www.w3.org/2000/svg">
<path d="M13.6651 7.41766V5.7922C13.6651 4.92642 13.6651 4.49353 13.5039 4.10427C13.3427 3.71502 13.0365 3.40892 12.4243 2.79671L11.793 2.16541L2.16504 11.7933L2.79642 12.4246C3.40863 13.0368 3.71473 13.343 4.10399 13.5041C4.49324 13.6654 4.92614 13.6654 5.79191 13.6654H7.41737C8.28313 13.6654 8.71608 13.6654 9.10532 13.5041C9.49457 13.343 9.80064 13.0368 10.4129 12.4246L12.4243 10.4131C13.0365 9.80093 13.3427 9.49485 13.5039 9.10561C13.6651 8.71637 13.6651 8.28342 13.6651 7.41766Z" fill="#CF3000"/>
<path d="M1.87201 11.5L1.24079 10.8688C0.628579 10.2566 0.322469 9.95049 0.161234 9.56124C-4.47035e-08 9.172 0 8.73904 0 7.87328V6.2478C0 5.38202 -4.47035e-08 4.94912 0.161234 4.55986C0.322469 4.1706 0.628579 3.8645 1.24079 3.25228L3.25228 1.24079C3.8645 0.628579 4.1706 0.322469 4.55986 0.161234C4.94912 -4.47035e-08 5.38202 0 6.2478 0H7.87328C8.73904 0 9.172 -4.47035e-08 9.56124 0.161234C9.95049 0.322469 10.2566 0.628579 10.8688 1.24079L11.5001 1.87209L1.87201 11.5Z" fill="#CF3000"/>
</svg>
