<svg width="14" height="14" viewBox="0 0 14 14" fill="none" xmlns="http://www.w3.org/2000/svg">
<path fill-rule="evenodd" clip-rule="evenodd" d="M6.66667 13.3333C10.3485 13.3333 13.3333 10.3485 13.3333 6.66667C13.3333 2.98477 10.3485 0 6.66667 0C2.98477 0 0 2.98477 0 6.66667C0 10.3485 2.98477 13.3333 6.66667 13.3333ZM10.6357 7.1666H8.60367C8.51167 7.52407 8.32333 7.84293 8.06793 8.09373L9.08413 9.8538C9.9206 9.21833 10.4993 8.26113 10.6357 7.1666ZM8.21847 10.3545L7.20213 8.5942C7.03173 8.6414 6.85213 8.66667 6.66667 8.66667C6.4812 8.66667 6.3016 8.6414 6.13113 8.59413L5.1148 10.3545C5.592 10.5555 6.11633 10.6667 6.66667 10.6667C7.217 10.6667 7.74133 10.5555 8.21847 10.3545ZM4.24919 9.85373L5.26537 8.09367C5.01 7.84287 4.82165 7.52407 4.72965 7.1666H2.6976C2.83407 8.26113 3.41274 9.21833 4.24919 9.85373ZM10.6357 6.1666H8.60367C8.5116 5.80913 8.32327 5.49033 8.06787 5.23959L9.08407 3.47952C9.92053 4.11493 10.4992 5.07209 10.6357 6.1666ZM8.21847 2.97881C7.74127 2.77779 7.21693 2.66667 6.66667 2.66667C6.1164 2.66667 5.592 2.77779 5.11485 2.97883L6.1312 4.73916C6.3016 4.69191 6.4812 4.66667 6.66667 4.66667C6.85213 4.66667 7.03167 4.69191 7.20213 4.73915L8.21847 2.97881ZM5.26541 5.23961L4.24923 3.47954C3.4128 4.11496 2.83413 5.07211 2.69763 6.1666H4.7297C4.82171 5.80913 5.01006 5.4904 5.26541 5.23961Z" fill="#5FCCF4"/>
</svg>
