<svg width="94" height="95" viewBox="0 0 94 95" fill="none" xmlns="http://www.w3.org/2000/svg">
<path d="M43.7539 1.40625C44.7888 0.751749 46.0568 0.903517 46.9395 1.75293L46.9404 1.75195L54.4395 8.90723L54.5674 9.03613C55.1866 9.69886 55.501 10.6267 55.501 11.541C55.501 12.5153 55.1429 13.504 54.4404 14.1719L54.4414 14.1729L48 20.3184V24.8945C49.781 24.9346 52.2627 25.0192 55.1387 25.1943C55.7323 24.8586 56.4607 24.7307 57.2041 24.9932C57.472 25.0877 57.7125 25.2237 57.9248 25.3828C64.8827 25.908 73.4047 26.9697 79.7529 29.1172V9.15039C79.753 7.98515 80.2686 6.80326 81.249 6.17578C82.2978 5.50474 83.5637 5.68355 84.4395 6.51758V6.51855L91.9385 13.6738L92.0664 13.8027C92.6856 14.4656 93.0001 15.3929 93 16.3076C93 17.2821 92.6421 18.2715 91.9395 18.9395L85.4922 25.0889V31.8174C87.6957 33.3146 89.242 35.2697 89.2422 37.7832C89.2422 37.8721 89.2369 37.9926 89.2285 38.1143V38.1162C89.2242 38.177 89.2184 38.2395 89.2139 38.293C89.2091 38.349 89.2053 38.3975 89.2021 38.4434C89.2019 38.4481 89.2024 38.4524 89.2021 38.4561C89.2019 38.46 89.2014 38.4642 89.2012 38.4678V38.4805L89.1973 38.5244L85.4814 81.0498C85.4605 83.2121 84.3322 84.9739 82.6357 86.3721C80.9368 87.7723 78.6006 88.8728 75.9844 89.751C70.7438 91.51 64.0884 92.4693 58.335 92.9961L57.2432 93.0957V75.9492C57.2431 72.318 54.9564 69.7922 52.6182 69.792H37.6162C35.278 69.7923 32.9913 72.3181 32.9912 75.9492V93.084L31.8984 92.9814C26.1445 92.4426 19.4857 91.4628 14.2412 89.6641C11.6229 88.766 9.28511 87.6405 7.58496 86.209C5.88519 84.7777 4.76283 82.9815 4.74121 80.7852L1.01465 38.1279V38.1191L1.01367 38.1094C1.00529 37.9878 1 37.8671 1 37.7783V9.15039C1.00009 7.98506 1.51599 6.80316 2.49707 6.17578L2.50098 6.17285C3.55368 5.50724 4.80917 5.68304 5.68652 6.51855H5.6875L13.1855 13.6738C13.8894 14.3417 14.248 15.3323 14.248 16.3076C14.248 17.2793 13.8951 18.2734 13.1826 18.9443L6.74707 25.085V30.6533C9.7606 29.1405 13.6966 28.0394 17.835 27.2305C22.6269 26.2937 27.7928 25.7268 32.3213 25.3838C32.5358 25.2222 32.78 25.0855 33.0518 24.9912L33.0537 24.9902C33.7892 24.7373 34.5141 24.8592 35.1104 25.1953C37.9876 25.0237 40.4698 24.9381 42.25 24.8955V4.38379C42.2501 3.21829 42.7656 2.03453 43.752 1.40723L43.7539 1.40625ZM45.1211 31.6221C42.4872 31.6221 39.9808 31.6805 37.5967 31.7832L40.1855 43.8643C40.354 43.871 40.5229 43.8799 40.7061 43.8838H40.708C42.1409 43.9172 43.6106 43.9355 45.1211 43.9355C46.6276 43.9355 48.094 43.917 49.5234 43.8838L49.5264 43.8828C49.7125 43.879 49.8842 43.8701 50.0557 43.8633L52.6445 31.7832C50.2606 31.6805 47.7544 31.6221 45.1211 31.6221ZM56.0488 43.584C56.5765 43.5532 57.0946 43.5228 57.5947 43.4854H57.5967C58.1854 43.4424 58.6894 43.3883 59.293 43.3379C59.9589 43.2798 60.6124 43.2289 61.2363 43.168C61.8624 43.1019 62.4473 43.032 63.0586 42.96L63.0674 42.959C63.6034 42.9009 64.1401 42.8453 64.6357 42.7803H64.6367C64.9233 42.7432 65.1951 42.701 65.4697 42.6611L71.0537 33.7773C67.5372 33.1093 63.3524 32.5257 58.5049 32.1309L56.0488 43.584ZM31.7412 32.1348C26.8977 32.5271 22.7181 33.1185 19.2061 33.8037L24.7705 42.6533C27.6108 43.039 30.7538 43.3594 34.1953 43.5801L31.7412 32.1348ZM12.9795 35.3057C11.1674 35.8495 9.72852 36.4023 8.66504 36.9238C8.05801 37.2215 7.59123 37.5006 7.25391 37.751C7.23323 37.7663 7.21368 37.782 7.19434 37.7969C7.31338 37.8872 7.45642 37.9877 7.62891 38.0957C8.21009 38.4595 9.02374 38.8605 10.0791 39.2764C11.7446 39.9327 13.9593 40.6041 16.7031 41.2285L12.9795 35.3057ZM73.5469 41.2217C73.9249 41.1321 74.2772 41.0454 74.6699 40.9502L75.584 40.7275C76.0224 40.6123 76.4233 40.4969 76.8389 40.374C76.9804 40.3311 77.1254 40.2899 77.2598 40.252C77.3948 40.2138 77.5181 40.1787 77.6328 40.1445C78 40.0301 78.3164 39.9185 78.6846 39.7939C78.9931 39.6871 79.1722 39.6368 79.4053 39.5508L79.4082 39.5488C79.56 39.4934 79.6998 39.4394 79.8398 39.3828L80.2744 39.2041C80.557 39.0886 80.6914 39.0469 80.8721 38.9658L80.8789 38.9619L80.8867 38.959C81.1259 38.8561 81.2976 38.7635 81.5732 38.6299C81.8291 38.5028 81.9031 38.4792 82.0391 38.4033L82.0479 38.3984L82.2891 38.2578C82.3669 38.2095 82.4481 38.1571 82.5498 38.0938L82.5537 38.0918C82.7445 37.9741 82.8193 37.9357 82.9062 37.875C83.0083 37.8036 83.0359 37.7696 83.2041 37.6289C83.1964 37.6233 83.1886 37.617 83.1807 37.6113C82.8613 37.3832 82.4003 37.1196 81.7842 36.832C80.7012 36.3265 79.2071 35.7784 77.3125 35.2344L73.5469 41.2217Z" fill="url(#paint0_linear_3083_212)" stroke="#362700" stroke-width="2"/>
<defs>
<linearGradient id="paint0_linear_3083_212" x1="47" y1="2" x2="47" y2="92" gradientUnits="userSpaceOnUse">
<stop stop-color="#FFAE00"/>
</linearGradient>
</defs>
</svg>
