<svg width="15" height="12" viewBox="0 0 15 12" fill="none" xmlns="http://www.w3.org/2000/svg">
<path fill-rule="evenodd" clip-rule="evenodd" d="M7.68882 11.33H5.82149C3.07723 11.33 1.70509 11.33 0.85254 10.5004C-8.44151e-08 9.67079 0 8.33548 0 5.665C0 2.99449 -8.44151e-08 1.65924 0.85254 0.829618C1.70509 -8.44151e-08 3.07723 0 5.82149 0H7.68882C9.2661 0 10.0548 4.22075e-08 10.7132 0.355075C11.3715 0.71015 11.7894 1.36095 12.6254 2.66256L13.1075 3.41317C13.8108 4.50821 14.1625 5.05573 14.1625 5.665C14.1625 6.27427 13.8108 6.82179 13.1075 7.91684L12.6254 8.66745C11.7894 9.96905 11.3715 10.6198 10.7132 10.9749C10.0548 11.33 9.2661 11.33 7.68882 11.33ZM3.54062 2.16278C3.83394 2.16278 4.07172 2.38657 4.07172 2.66263V8.66412C4.07172 8.94015 3.83394 9.16399 3.54062 9.16399C3.24731 9.16399 3.00953 8.94015 3.00953 8.66412V2.66263C3.00953 2.38657 3.24731 2.16278 3.54062 2.16278Z" fill="#772F76"/>
</svg>
