<svg width="14" height="14" viewBox="0 0 14 14" fill="none" xmlns="http://www.w3.org/2000/svg">
<path d="M1.1665 3.79166C1.1665 2.34191 2.34176 1.16666 3.7915 1.16666C5.24125 1.16666 6.4165 2.34191 6.4165 3.79166V5.54166C6.4165 5.74509 6.4165 5.8468 6.39416 5.93027C6.33344 6.15672 6.15657 6.33359 5.93012 6.39431C5.84665 6.41666 5.74494 6.41666 5.5415 6.41666H3.7915C2.34176 6.41666 1.1665 5.2414 1.1665 3.79166Z" fill="#7262FF"/>
<path d="M7.5835 8.45834C7.5835 8.25494 7.5835 8.1532 7.60584 8.06973C7.66656 7.84328 7.84343 7.66641 8.06988 7.60568C8.15335 7.58334 8.25509 7.58334 8.4585 7.58334H10.2085C11.6583 7.58334 12.8335 8.75859 12.8335 10.2083C12.8335 11.6581 11.6583 12.8333 10.2085 12.8333C8.75874 12.8333 7.5835 11.6581 7.5835 10.2083V8.45834Z" fill="#7262FF"/>
<path d="M1.1665 10.2083C1.1665 8.75859 2.34176 7.58334 3.7915 7.58334H5.3665C5.73404 7.58334 5.91781 7.58334 6.05816 7.65486C6.18165 7.7178 6.28205 7.81819 6.34499 7.94169C6.4165 8.08204 6.4165 8.26579 6.4165 8.63334V10.2083C6.4165 11.6581 5.24125 12.8333 3.7915 12.8333C2.34176 12.8333 1.1665 11.6581 1.1665 10.2083Z" fill="#7262FF"/>
<path d="M7.5835 3.79166C7.5835 2.34191 8.75874 1.16666 10.2085 1.16666C11.6583 1.16666 12.8335 2.34191 12.8335 3.79166C12.8335 5.2414 11.6583 6.41666 10.2085 6.41666H8.33349C8.24645 6.41666 8.20288 6.41666 8.16625 6.41251C7.86204 6.37827 7.62188 6.13811 7.58764 5.83391C7.5835 5.79726 7.5835 5.75373 7.5835 5.66666V3.79166Z" fill="#7262FF"/>
</svg>
