<svg width="14" height="14" viewBox="0 0 14 14" fill="none" xmlns="http://www.w3.org/2000/svg">
<path d="M13.4027 7.90235L13.5594 6.23783C13.6824 4.93056 13.744 4.27693 13.5203 4.00672C13.3993 3.86057 13.2348 3.77101 13.0589 3.75556C12.7338 3.727 12.3255 4.19184 11.5088 5.12151C11.0865 5.60231 10.8754 5.84269 10.6398 5.87995C10.5093 5.90052 10.3763 5.87933 10.2557 5.8187C10.0382 5.70921 9.89318 5.41204 9.6031 4.81766L8.07425 1.68473C7.52615 0.561577 7.25207 0 6.835 0C6.41793 0 6.14384 0.561577 5.59574 1.68473L4.06687 4.81766C3.77681 5.41204 3.63178 5.70921 3.41426 5.8187C3.29373 5.87933 3.16073 5.90052 3.03021 5.87995C2.79464 5.84269 2.58347 5.60231 2.16114 5.12151C1.3445 4.19184 0.936175 3.727 0.611041 3.75556C0.435156 3.77101 0.270651 3.86057 0.149678 4.00672C-0.0739562 4.27693 -0.0124413 4.93056 0.110596 6.23783L0.267247 7.90235C0.525371 10.645 0.654436 12.0163 1.46275 12.8431C2.27107 13.67 3.48255 13.67 5.90551 13.67H7.76449C10.1874 13.67 11.3989 13.67 12.2072 12.8431C13.0155 12.0163 13.1446 10.645 13.4027 7.90235Z" fill="#FFE137"/>
</svg>
