<svg width="14" height="14" viewBox="0 0 14 14" fill="none" xmlns="http://www.w3.org/2000/svg">
<path d="M10.385 1.62101L9.05165 0.921313C7.88125 0.307107 7.29605 0 6.66652 0C6.03699 0 5.45179 0.307107 4.28138 0.921313L2.94805 1.62101C1.76555 2.24156 1.07046 2.60633 0.639648 3.09421L6.66652 6.10767L12.6934 3.09421C12.2626 2.60633 11.5675 2.24156 10.385 1.62101Z" fill="#36BEA3"/>
<path d="M13.1654 3.97623L7.1665 6.97566V13.2693C7.6451 13.1501 8.1897 12.8643 9.05164 12.412L10.385 11.7123C11.8194 10.9595 12.5366 10.5832 12.9349 9.90686C13.3332 9.23053 13.3332 8.38886 13.3332 6.70566V6.62766C13.3332 5.36593 13.3332 4.57705 13.1654 3.97623Z" fill="#36BEA3"/>
<path d="M6.16667 13.2693V6.97567L0.16776 3.97623C5.96046e-08 4.57705 0 5.36593 0 6.62767V6.70567C0 8.38887 -3.97364e-08 9.23053 0.398267 9.90687C0.796527 10.5832 1.51375 10.9595 2.94819 11.7123L4.28153 12.412C5.14349 12.8643 5.68807 13.1501 6.16667 13.2693Z" fill="#36BEA3"/>
</svg>
