<svg width="9" height="12" viewBox="0 0 9 12" fill="none" xmlns="http://www.w3.org/2000/svg">
<path d="M0.115646 0.757855C0.466936 0 1.6724 0 4.08333 0C6.49425 0 7.69971 0 8.05099 0.757855C8.08121 0.823002 8.1067 0.890668 8.12718 0.960225C8.36582 1.76942 7.51345 2.70731 5.80866 4.5831L4.66667 5.83333L5.80866 7.08359C7.51345 8.95936 8.36582 9.89724 8.12718 10.7064C8.1067 10.776 8.08121 10.8436 8.05099 10.9088C7.69971 11.6667 6.49425 11.6667 4.08333 11.6667C1.6724 11.6667 0.466936 11.6667 0.115646 10.9088C0.085453 10.8436 0.0599789 10.776 0.039463 10.7064C-0.199167 9.89724 0.653223 8.95936 2.35801 7.08359L3.5 5.83333L2.35801 4.5831C0.653223 2.70731 -0.199167 1.76942 0.039463 0.960225C0.0599789 0.890668 0.085453 0.823002 0.115646 0.757855Z" fill="#849DFF"/>
</svg>
