<svg width="24" height="10" viewBox="0 0 24 10" fill="none" xmlns="http://www.w3.org/2000/svg">
<path d="M10.9903 7.01911C9.78428 6.26055 8.79086 5.7532 8.01007 5.49707C7.22231 5.23108 6.45895 5.09809 5.71999 5.09809C4.78583 5.09809 3.79938 5.502 2.76065 6.30981C1.72192 7.10777 0.801704 8.09783 0 9.28V3.75337C1.60341 1.25112 3.61116 0 6.02324 0C6.99226 0 7.9543 0.137918 8.90938 0.413756C9.86445 0.699446 11.1123 1.31516 12.653 2.26089C13.8521 3.01945 14.8455 3.52679 15.6332 3.78293C16.421 4.04892 17.1669 4.18191 17.871 4.18191C18.8401 4.18191 19.8439 3.778 20.8827 2.97019C21.9214 2.17223 22.8416 1.18217 23.6433 0V5.45274C22.005 8.00424 19.9973 9.28 17.6201 9.28C16.6789 9.28 15.7169 9.1273 14.7339 8.82191C13.744 8.51652 12.4961 7.91558 10.9903 7.01911Z" fill="url(#paint0_linear_3555_362)"/>
<defs>
<linearGradient id="paint0_linear_3555_362" x1="0" y1="4.64" x2="23.6433" y2="4.64" gradientUnits="userSpaceOnUse">
<stop stop-color="#EFEFEF"/>
<stop offset="1" stop-color="#898989"/>
</linearGradient>
</defs>
</svg>
