<svg width="15" height="15" viewBox="0 0 15 15" fill="none" xmlns="http://www.w3.org/2000/svg">
<path d="M6.81152 10.0748C6.50684 9.54744 6.24902 9.00544 6.01465 8.45759C4.9834 10.2183 4.32129 12.1695 4.06348 14.1851C6.03516 15.1988 8.41406 15.316 10.5439 14.3697C9.0791 13.2183 7.79883 11.7857 6.81152 10.0748ZM7.5791 9.26912C8.58984 11.0416 9.94629 12.5914 11.5635 13.8219C13.4268 12.6207 14.7188 10.6168 14.9619 8.30232C13.2334 8.99373 11.3525 9.3863 9.37793 9.3863C8.76855 9.3863 8.1709 9.33943 7.5791 9.26912ZM5.93555 6.69392C3.89355 6.6822 1.87207 7.08357 0 7.86873C0.108398 10.0836 1.19531 12.2017 3.08203 13.5728C3.3457 11.7301 3.94629 9.90486 4.93652 8.19392C5.23828 7.66658 5.57812 7.17146 5.93555 6.69392ZM7.4209 5.7447C6.41016 3.97224 5.05371 2.41951 3.43652 1.19197C1.57324 2.39314 0.28125 4.39705 0.0380859 6.7115C1.7666 6.02009 3.64746 5.62751 5.62207 5.62751C6.23145 5.62751 6.8291 5.67439 7.4209 5.7447ZM8.18848 4.94197C8.49316 5.46931 8.75098 6.0113 8.98535 6.55916C10.0166 4.79841 10.6787 2.84724 10.9365 0.831617C8.96484 -0.182055 6.58594 -0.299243 4.45605 0.647046C5.9209 1.79548 7.20117 3.23103 8.18848 4.94197ZM9.06445 8.3199C11.1064 8.33162 13.1279 7.93025 15 7.14509C14.8916 4.93025 13.8047 2.81209 11.9209 1.44099C11.6572 3.28377 11.0537 5.10896 10.0664 6.8199C9.76172 7.34724 9.42188 7.84236 9.06445 8.3199Z" fill="#00BAFF"/>
</svg>
