<svg width="16" height="16" viewBox="0 0 16 16" fill="none" xmlns="http://www.w3.org/2000/svg">
<path d="M5.54931 8.09735C5.8429 8.70132 6.28416 9.21153 6.86882 9.50108C6.29567 9.63307 5.63269 9.66031 4.95487 9.56426C2.93753 9.27846 1.08419 7.97542 1.08419 5.60163C1.08419 5.30224 0.84148 5.05954 0.542093 5.05954C0.242706 5.05954 0 5.30224 0 5.60163C0 8.72105 2.4834 10.3092 4.8028 10.6377C5.9682 10.8028 7.16611 10.6685 8.09735 10.2159C8.72488 9.91083 9.25121 9.4463 9.53397 8.82715C9.63697 9.3631 9.65171 9.96801 9.56426 10.5851C9.27846 12.6024 7.97542 14.4558 5.60163 14.4558C5.30224 14.4558 5.05954 14.6985 5.05954 14.9979C5.05954 15.2973 5.30224 15.54 5.60163 15.54C8.72105 15.54 10.3092 13.0566 10.6377 10.7372C10.8028 9.57177 10.6685 8.37389 10.2159 7.44265C9.96562 6.92795 9.6082 6.48134 9.14612 6.18134C9.59801 6.12632 10.0876 6.13041 10.5851 6.2009C12.6024 6.48669 14.4558 7.7898 14.4558 10.1635C14.4558 10.4629 14.6985 10.7056 14.9979 10.7056C15.2973 10.7056 15.54 10.4629 15.54 10.1635C15.54 7.0441 13.0566 5.45601 10.7372 5.12743C9.57177 4.96233 8.37389 5.09663 7.44265 5.54931C6.94277 5.79231 6.50707 6.13649 6.20759 6.57942C6.12647 6.07744 6.12065 5.52134 6.2009 4.95487C6.48669 2.93753 7.7898 1.08419 10.1635 1.08419C10.4629 1.08419 10.7056 0.84148 10.7056 0.542093C10.7056 0.242706 10.4629 0 10.1635 0C7.0441 0 5.45601 2.4834 5.12743 4.8028C4.96233 5.9682 5.09663 7.16611 5.54931 8.09735Z" fill="#E0498B"/>
</svg>
