<svg width="14" height="14" viewBox="0 0 14 14" fill="none" xmlns="http://www.w3.org/2000/svg">
<path d="M4.76877 2.27225C5.6132 0.75742 6.0354 0 6.66667 0C7.29793 0 7.72013 0.757413 8.56453 2.27225L8.783 2.66415C9.023 3.09462 9.14293 3.30986 9.33007 3.45187C9.51713 3.59389 9.75007 3.6466 10.2161 3.75203L10.6403 3.84802C12.2801 4.21904 13.1 4.40455 13.2951 5.03182C13.4901 5.65907 12.9312 6.31273 11.8133 7.61993L11.5241 7.95813C11.2064 8.3296 11.0475 8.51533 10.9761 8.74513C10.9047 8.97493 10.9287 9.22273 10.9767 9.7184L11.0204 10.1696C11.1894 11.9137 11.2739 12.7858 10.7633 13.1735C10.2525 13.5611 9.48487 13.2077 7.94953 12.5008L7.55233 12.3179C7.11607 12.117 6.89793 12.0165 6.66667 12.0165C6.4354 12.0165 6.21727 12.117 5.781 12.3179L5.3838 12.5008C3.84845 13.2077 3.08079 13.5611 2.5701 13.1735C2.05941 12.7858 2.14392 11.9137 2.31293 10.1696L2.35665 9.7184C2.40469 9.22273 2.4287 8.97493 2.35724 8.74513C2.28579 8.51533 2.12695 8.3296 1.80928 7.95813L1.52007 7.61993C0.402168 6.31273 -0.156785 5.65907 0.0382813 5.03182C0.233348 4.40455 1.05324 4.21904 2.69303 3.84802L3.11726 3.75203C3.58323 3.6466 3.81622 3.59389 4.00329 3.45187C4.19037 3.30986 4.31035 3.09463 4.55031 2.66415L4.76877 2.27225Z" fill="#EC8DFF"/>
</svg>
