<svg width="14" height="14" viewBox="0 0 14 14" fill="none" xmlns="http://www.w3.org/2000/svg">
<path d="M4.5 6.66667C4.5 5.47007 5.47007 4.5 6.66667 4.5C7.86327 4.5 8.83333 5.47007 8.83333 6.66667C8.83333 7.86327 7.86327 8.83333 6.66667 8.83333C5.47007 8.83333 4.5 7.86327 4.5 6.66667Z" fill="#761C30"/>
<path fill-rule="evenodd" clip-rule="evenodd" d="M6.66667 13.3333C10.3485 13.3333 13.3333 10.3485 13.3333 6.66667C13.3333 2.98477 10.3485 0 6.66667 0C2.98477 0 0 2.98477 0 6.66667C0 10.3485 2.98477 13.3333 6.66667 13.3333ZM6.66667 3.5C4.91777 3.5 3.5 4.91777 3.5 6.66667C3.5 8.4156 4.91777 9.83333 6.66667 9.83333C8.4156 9.83333 9.83333 8.4156 9.83333 6.66667C9.83333 4.91777 8.4156 3.5 6.66667 3.5Z" fill="#761C30"/>
</svg>
