<svg width="32" height="32" viewBox="0 0 32 32" fill="none" xmlns="http://www.w3.org/2000/svg">
<mask id="path-1-outside-1_3555_516" maskUnits="userSpaceOnUse" x="0" y="0" width="32" height="32" fill="black">
<rect fill="white" width="32" height="32"/>
<path d="M6.84848 2V8.185H8.66667V2H6.84848ZM23.3333 2V8.31385H25.1515V2H23.3333ZM2 3.03083V4.96364H5.75758V3.03083H2ZM9.75758 3.03083V4.96364H22.2424V3.03083H9.75758ZM26.2424 3.03083V4.96364H30V3.03083H26.2424ZM4.66667 8.185V14.5633L8.10909 15.4781L4.66667 16.4768V24.601C5.53879 24.3755 6.42485 24.4915 7.25455 24.8201C8.33939 25.2388 9.3697 25.9797 10.3818 26.7593C12.4061 28.3249 14.3758 30 16 30C17.6242 30 19.5939 28.3249 21.6182 26.7593C22.6303 25.9797 23.6606 25.2388 24.7455 24.8201C25.5758 24.4915 26.4606 24.3755 27.3333 24.601V21.8564L26.4 21.167L24.6909 19.9043L27.3333 20.1684V13.5582L24.5636 12.624L27.3333 12.012V8.185H26.2424V9.47354H22.2424V8.185H9.75758V9.34468H5.75758V8.185H4.66667ZM15.8364 10.1178H15.8545C16.7576 10.15 17.2364 10.8845 17.4606 11.1164C17.5758 11.2388 17.5697 11.2195 17.5879 11.2195C17.9212 11.0584 18 10.9811 18.2727 10.7234H18.4788C19.0848 10.7234 19.6182 11.0649 19.9758 11.5481C20.3333 12.0313 20.5333 12.6691 20.5333 13.3585C20.5333 13.6098 20.5091 13.8481 20.4545 14.0801C20.703 13.9834 20.9455 13.9061 21.1939 13.8932C21.2848 13.8803 21.3697 13.8868 21.4545 13.8997C21.8121 13.9383 22.2242 14.2347 22.3394 14.6535C22.9636 16.8569 22.8061 19.2536 22.3455 21.1477C22.1818 21.8306 21.703 22.2816 21.2182 22.4556C20.9455 22.5522 20.6788 22.5909 20.4242 22.6102C20.4121 22.7391 20.4242 24.7105 20.4242 25.838H11.5758C11.5697 24.6848 11.5758 23.6024 11.5758 22.4878C11.7879 20.5357 12.1152 17.8748 12.3394 15.7552C11.5455 15.3557 10.9879 14.5439 10.9879 13.584C10.9879 12.2181 12.1212 11.1486 13.4485 11.1486C13.697 11.1486 13.9455 11.1873 14.1758 11.2646C14.5576 10.5881 15.1394 10.1178 15.8364 10.1178ZM15.8303 11.2775C15.5455 11.2839 15.1818 11.5545 14.9515 12.2052L14.7333 12.8302L14.1818 12.5081C13.9636 12.3792 13.703 12.3083 13.4485 12.3083C12.6545 12.3083 12.0788 12.9011 12.0788 13.584C12.0788 14.2669 12.6545 14.8596 13.4485 14.8596C13.7758 14.8596 14.0909 14.7501 14.3273 14.5633L14.8061 14.1832L15.1212 14.7243C15.3515 15.1302 15.6121 15.272 15.8364 15.272C16.1212 15.272 16.4909 14.9949 16.7273 14.3313L17.1455 13.1394L17.7152 14.254C17.9273 14.6599 18.2061 14.8339 18.4788 14.8339C18.703 14.8339 18.9212 14.7115 19.1152 14.4537C19.303 14.196 19.4424 13.803 19.4424 13.3585C19.4424 12.9139 19.303 12.5209 19.1152 12.2632C18.9697 12.0699 18.8121 11.954 18.6424 11.9024C18.303 12.1859 17.9879 12.3599 17.6424 12.3792C17.2364 12.3985 16.903 12.1537 16.703 11.954C16.3152 11.5545 16.2121 11.2968 15.8303 11.2775ZM21.3091 15.0529C20.7091 15.1302 20.1152 15.5361 19.6788 15.9034L20.2606 21.4505C20.497 21.4376 20.7152 21.4119 20.8667 21.3539C21.103 21.2701 21.2061 21.2057 21.2909 20.8642C21.703 19.1569 21.8303 16.96 21.3091 15.0529ZM17.3333 15.5426C16.9576 16.0773 16.4424 16.4317 15.8364 16.4317C15.3273 16.4317 14.8667 16.1804 14.5091 15.7745C14.1758 15.9356 13.8121 16.0193 13.4485 16.0193H13.4121L12.7333 22.4878H19.2667L18.5879 15.9871C18.5515 15.9936 18.5152 15.9936 18.4788 15.9936C18.0545 15.9936 17.6606 15.826 17.3333 15.5426ZM12.6667 23.6475V24.6783H19.3333V23.6475H12.6667Z"/>
</mask>
<path d="M6.84848 2V8.185H8.66667V2H6.84848ZM23.3333 2V8.31385H25.1515V2H23.3333ZM2 3.03083V4.96364H5.75758V3.03083H2ZM9.75758 3.03083V4.96364H22.2424V3.03083H9.75758ZM26.2424 3.03083V4.96364H30V3.03083H26.2424ZM4.66667 8.185V14.5633L8.10909 15.4781L4.66667 16.4768V24.601C5.53879 24.3755 6.42485 24.4915 7.25455 24.8201C8.33939 25.2388 9.3697 25.9797 10.3818 26.7593C12.4061 28.3249 14.3758 30 16 30C17.6242 30 19.5939 28.3249 21.6182 26.7593C22.6303 25.9797 23.6606 25.2388 24.7455 24.8201C25.5758 24.4915 26.4606 24.3755 27.3333 24.601V21.8564L26.4 21.167L24.6909 19.9043L27.3333 20.1684V13.5582L24.5636 12.624L27.3333 12.012V8.185H26.2424V9.47354H22.2424V8.185H9.75758V9.34468H5.75758V8.185H4.66667ZM15.8364 10.1178H15.8545C16.7576 10.15 17.2364 10.8845 17.4606 11.1164C17.5758 11.2388 17.5697 11.2195 17.5879 11.2195C17.9212 11.0584 18 10.9811 18.2727 10.7234H18.4788C19.0848 10.7234 19.6182 11.0649 19.9758 11.5481C20.3333 12.0313 20.5333 12.6691 20.5333 13.3585C20.5333 13.6098 20.5091 13.8481 20.4545 14.0801C20.703 13.9834 20.9455 13.9061 21.1939 13.8932C21.2848 13.8803 21.3697 13.8868 21.4545 13.8997C21.8121 13.9383 22.2242 14.2347 22.3394 14.6535C22.9636 16.8569 22.8061 19.2536 22.3455 21.1477C22.1818 21.8306 21.703 22.2816 21.2182 22.4556C20.9455 22.5522 20.6788 22.5909 20.4242 22.6102C20.4121 22.7391 20.4242 24.7105 20.4242 25.838H11.5758C11.5697 24.6848 11.5758 23.6024 11.5758 22.4878C11.7879 20.5357 12.1152 17.8748 12.3394 15.7552C11.5455 15.3557 10.9879 14.5439 10.9879 13.584C10.9879 12.2181 12.1212 11.1486 13.4485 11.1486C13.697 11.1486 13.9455 11.1873 14.1758 11.2646C14.5576 10.5881 15.1394 10.1178 15.8364 10.1178ZM15.8303 11.2775C15.5455 11.2839 15.1818 11.5545 14.9515 12.2052L14.7333 12.8302L14.1818 12.5081C13.9636 12.3792 13.703 12.3083 13.4485 12.3083C12.6545 12.3083 12.0788 12.9011 12.0788 13.584C12.0788 14.2669 12.6545 14.8596 13.4485 14.8596C13.7758 14.8596 14.0909 14.7501 14.3273 14.5633L14.8061 14.1832L15.1212 14.7243C15.3515 15.1302 15.6121 15.272 15.8364 15.272C16.1212 15.272 16.4909 14.9949 16.7273 14.3313L17.1455 13.1394L17.7152 14.254C17.9273 14.6599 18.2061 14.8339 18.4788 14.8339C18.703 14.8339 18.9212 14.7115 19.1152 14.4537C19.303 14.196 19.4424 13.803 19.4424 13.3585C19.4424 12.9139 19.303 12.5209 19.1152 12.2632C18.9697 12.0699 18.8121 11.954 18.6424 11.9024C18.303 12.1859 17.9879 12.3599 17.6424 12.3792C17.2364 12.3985 16.903 12.1537 16.703 11.954C16.3152 11.5545 16.2121 11.2968 15.8303 11.2775ZM21.3091 15.0529C20.7091 15.1302 20.1152 15.5361 19.6788 15.9034L20.2606 21.4505C20.497 21.4376 20.7152 21.4119 20.8667 21.3539C21.103 21.2701 21.2061 21.2057 21.2909 20.8642C21.703 19.1569 21.8303 16.96 21.3091 15.0529ZM17.3333 15.5426C16.9576 16.0773 16.4424 16.4317 15.8364 16.4317C15.3273 16.4317 14.8667 16.1804 14.5091 15.7745C14.1758 15.9356 13.8121 16.0193 13.4485 16.0193H13.4121L12.7333 22.4878H19.2667L18.5879 15.9871C18.5515 15.9936 18.5152 15.9936 18.4788 15.9936C18.0545 15.9936 17.6606 15.826 17.3333 15.5426ZM12.6667 23.6475V24.6783H19.3333V23.6475H12.6667Z" fill="#00C04A"/>
<path d="M6.84848 2V8.185H8.66667V2H6.84848ZM23.3333 2V8.31385H25.1515V2H23.3333ZM2 3.03083V4.96364H5.75758V3.03083H2ZM9.75758 3.03083V4.96364H22.2424V3.03083H9.75758ZM26.2424 3.03083V4.96364H30V3.03083H26.2424ZM4.66667 8.185V14.5633L8.10909 15.4781L4.66667 16.4768V24.601C5.53879 24.3755 6.42485 24.4915 7.25455 24.8201C8.33939 25.2388 9.3697 25.9797 10.3818 26.7593C12.4061 28.3249 14.3758 30 16 30C17.6242 30 19.5939 28.3249 21.6182 26.7593C22.6303 25.9797 23.6606 25.2388 24.7455 24.8201C25.5758 24.4915 26.4606 24.3755 27.3333 24.601V21.8564L26.4 21.167L24.6909 19.9043L27.3333 20.1684V13.5582L24.5636 12.624L27.3333 12.012V8.185H26.2424V9.47354H22.2424V8.185H9.75758V9.34468H5.75758V8.185H4.66667ZM15.8364 10.1178H15.8545C16.7576 10.15 17.2364 10.8845 17.4606 11.1164C17.5758 11.2388 17.5697 11.2195 17.5879 11.2195C17.9212 11.0584 18 10.9811 18.2727 10.7234H18.4788C19.0848 10.7234 19.6182 11.0649 19.9758 11.5481C20.3333 12.0313 20.5333 12.6691 20.5333 13.3585C20.5333 13.6098 20.5091 13.8481 20.4545 14.0801C20.703 13.9834 20.9455 13.9061 21.1939 13.8932C21.2848 13.8803 21.3697 13.8868 21.4545 13.8997C21.8121 13.9383 22.2242 14.2347 22.3394 14.6535C22.9636 16.8569 22.8061 19.2536 22.3455 21.1477C22.1818 21.8306 21.703 22.2816 21.2182 22.4556C20.9455 22.5522 20.6788 22.5909 20.4242 22.6102C20.4121 22.7391 20.4242 24.7105 20.4242 25.838H11.5758C11.5697 24.6848 11.5758 23.6024 11.5758 22.4878C11.7879 20.5357 12.1152 17.8748 12.3394 15.7552C11.5455 15.3557 10.9879 14.5439 10.9879 13.584C10.9879 12.2181 12.1212 11.1486 13.4485 11.1486C13.697 11.1486 13.9455 11.1873 14.1758 11.2646C14.5576 10.5881 15.1394 10.1178 15.8364 10.1178ZM15.8303 11.2775C15.5455 11.2839 15.1818 11.5545 14.9515 12.2052L14.7333 12.8302L14.1818 12.5081C13.9636 12.3792 13.703 12.3083 13.4485 12.3083C12.6545 12.3083 12.0788 12.9011 12.0788 13.584C12.0788 14.2669 12.6545 14.8596 13.4485 14.8596C13.7758 14.8596 14.0909 14.7501 14.3273 14.5633L14.8061 14.1832L15.1212 14.7243C15.3515 15.1302 15.6121 15.272 15.8364 15.272C16.1212 15.272 16.4909 14.9949 16.7273 14.3313L17.1455 13.1394L17.7152 14.254C17.9273 14.6599 18.2061 14.8339 18.4788 14.8339C18.703 14.8339 18.9212 14.7115 19.1152 14.4537C19.303 14.196 19.4424 13.803 19.4424 13.3585C19.4424 12.9139 19.303 12.5209 19.1152 12.2632C18.9697 12.0699 18.8121 11.954 18.6424 11.9024C18.303 12.1859 17.9879 12.3599 17.6424 12.3792C17.2364 12.3985 16.903 12.1537 16.703 11.954C16.3152 11.5545 16.2121 11.2968 15.8303 11.2775ZM21.3091 15.0529C20.7091 15.1302 20.1152 15.5361 19.6788 15.9034L20.2606 21.4505C20.497 21.4376 20.7152 21.4119 20.8667 21.3539C21.103 21.2701 21.2061 21.2057 21.2909 20.8642C21.703 19.1569 21.8303 16.96 21.3091 15.0529ZM17.3333 15.5426C16.9576 16.0773 16.4424 16.4317 15.8364 16.4317C15.3273 16.4317 14.8667 16.1804 14.5091 15.7745C14.1758 15.9356 13.8121 16.0193 13.4485 16.0193H13.4121L12.7333 22.4878H19.2667L18.5879 15.9871C18.5515 15.9936 18.5152 15.9936 18.4788 15.9936C18.0545 15.9936 17.6606 15.826 17.3333 15.5426ZM12.6667 23.6475V24.6783H19.3333V23.6475H12.6667Z" stroke="#002B10" stroke-width="4" mask="url(#path-1-outside-1_3555_516)"/>
</svg>
