<svg width="8" height="12" viewBox="0 0 8 12" fill="none" xmlns="http://www.w3.org/2000/svg">
<path fill-rule="evenodd" clip-rule="evenodd" d="M2.52137 0.129529C2.29577 0.322901 2.26966 0.662536 2.46305 0.888137L6.46691 5.55933L2.46305 10.2305C2.26966 10.4561 2.29577 10.7958 2.52137 10.9892C2.74697 11.1825 3.08663 11.1564 3.27995 10.9308L7.58395 5.90946C7.75668 5.70796 7.75668 5.4107 7.58395 5.2092L3.27995 0.187884C3.08663 -0.0377098 2.74697 -0.0638421 2.52137 0.129529Z" fill="#ADDE6F"/>
<path d="M0 0.537026C0 0.312302 0.139928 0.11135 0.35069 0.0333843C0.561451 -0.0445881 0.798476 0.0169307 0.944719 0.187553L5.24069 5.19958C5.4131 5.40064 5.4131 5.69742 5.24069 5.89847L0.944719 10.9105C0.798476 11.0811 0.561451 11.1427 0.35069 11.0647C0.139928 10.9867 0 10.7857 0 10.561V0.537026Z" fill="#ADDE6F"/>
</svg>
