<svg width="13" height="12" viewBox="0 0 13 12" fill="none" xmlns="http://www.w3.org/2000/svg">
<path d="M12.5276 -0.610352C11.6876 0.254613 10.5438 1.12023 9.37702 1.7583C9.39329 1.95881 9.39562 2.15788 9.38468 2.35475L11.4876 4.18848C12.1387 2.82102 12.5217 1.23325 12.5276 -0.610352ZM8.87964 2.01637C7.95146 2.46842 7.03295 2.75602 6.26661 2.76403C6.27856 4.63369 3.05189 7.01652 0 8.5L0.5 9.5C3.26801 8.60135 4.65566 7.86003 6.39308 6.41442C7.99091 5.08497 8.92262 3.60452 8.87964 2.01637ZM9.30776 2.96569C9.15163 3.75902 8.78221 4.51805 8.24644 5.23183L8.33274 5.99746L10.6288 5.6625C10.8521 5.34266 11.059 5.00821 11.2483 4.65843L9.30776 2.96569ZM7.79442 5.78046C7.47521 6.13579 7.11528 6.4789 6.72036 6.80749C6.04551 7.36899 5.26676 7.89364 4.41063 8.37893L6.06665 9.59403C6.76624 9.21007 7.44259 8.77821 8.07724 8.29179L7.79442 5.78046ZM10.1947 6.2427L8.38997 6.50589L8.54894 7.91327C9.14709 7.41116 9.70162 6.85662 10.1947 6.2427ZM3.91675 8.65067C3.66663 8.78357 3.41061 8.91318 3.1494 9.03945L3.5869 10.7365C4.25258 10.4801 4.91619 10.1888 5.56421 9.85889L3.91675 8.65067ZM2.67862 9.26156C1.64147 9.73614 1.29709 9.85889 1.00024 10L1.50005 11.5C2.67124 11.2534 1.82446 11.3779 3.1059 10.9159L2.67862 9.26156Z" fill="#FFB800"/>
</svg>
