<svg width="12" height="11" viewBox="0 0 12 11" fill="none" xmlns="http://www.w3.org/2000/svg">
<path d="M3.56199 8.72777C1.92394 7.46573 0 5.98342 0 3.41378C0 0.577062 3.20843 -1.43468 5.83333 1.2925L7 2.45838C7.17086 2.62921 7.44788 2.62915 7.61874 2.45827C7.78954 2.28738 7.78948 2.01038 7.61862 1.83955L6.49162 0.712955C8.96496 -1.09773 11.6667 0.810681 11.6667 3.41378C11.6667 5.98342 9.74272 7.46573 8.10466 8.72777C7.93444 8.85896 7.76726 8.98776 7.60567 9.11516C7 9.59262 6.41667 10.0421 5.83333 10.0421C5.25 10.0421 4.66667 9.59262 4.06101 9.11516C3.89941 8.98776 3.73225 8.85896 3.56199 8.72777Z" fill="#F4634A"/>
</svg>
