<svg width="13" height="13" viewBox="0 0 13 13" fill="none" xmlns="http://www.w3.org/2000/svg">
<path d="M11.357 0H1.64301C0.735646 0 0 0.735406 0 1.64282V11.357C0 12.2644 0.735646 12.9998 1.64301 12.9998H11.357C12.2644 12.9998 13 12.2644 13 11.357V1.64282C13 0.735406 12.2644 0 11.357 0ZM6.50011 11.264C3.86882 11.264 1.7356 9.13076 1.7356 6.49947C1.7356 3.86858 3.86884 1.73539 6.50011 1.73539C9.131 1.73539 11.2642 3.86858 11.2642 6.49947C11.2642 9.13076 9.131 11.264 6.50011 11.264Z" fill="#C7C7C7"/>
<path d="M9.09805 5.38783H7.61237V3.90169C7.61237 3.63757 7.39835 3.42358 7.13426 3.42358H5.86573C5.60164 3.42358 5.38762 3.63757 5.38762 3.90169V5.38783H3.90215C3.63806 5.38783 3.42407 5.60184 3.42407 5.86591V7.13422C3.42407 7.39832 3.63806 7.61233 3.90215 7.61233H5.38762V9.09801C5.38762 9.36213 5.60164 9.57615 5.86573 9.57615H7.13426C7.39835 9.57615 7.61237 9.36216 7.61237 9.09801V7.61233H9.09805C9.36214 7.61233 9.57616 7.39832 9.57616 7.13422V5.86591C9.57618 5.60184 9.36214 5.38783 9.09805 5.38783Z" fill="#C7C7C7"/>
</svg>
