<svg width="12" height="12" viewBox="0 0 12 12" fill="none" xmlns="http://www.w3.org/2000/svg">
<path fill-rule="evenodd" clip-rule="evenodd" d="M5.39461 0C2.51375 0.213605 0.213605 2.51375 0 5.39461H1.73866C1.98095 5.39461 2.17737 5.59102 2.17737 5.83333C2.17737 6.07565 1.98095 6.27206 1.73866 6.27206H0C0.213605 9.15291 2.51375 11.453 5.39461 11.6667V9.92798C5.39461 9.68572 5.59102 9.48932 5.83333 9.48932C6.07565 9.48932 6.27206 9.68572 6.27206 9.92798V11.6667C9.15291 11.453 11.453 9.15291 11.6667 6.27206H9.92798C9.68572 6.27206 9.48932 6.07565 9.48932 5.83333C9.48932 5.59102 9.68572 5.39461 9.92798 5.39461H11.6667C11.453 2.51375 9.15291 0.213605 6.27206 0V1.73866C6.27206 1.98095 6.07565 2.17737 5.83333 2.17737C5.59102 2.17737 5.39461 1.98095 5.39461 1.73866V0ZM4.22471 5.83333C4.22471 5.59102 4.42113 5.39461 4.66342 5.39461H5.39461V4.66342C5.39461 4.42113 5.59102 4.22471 5.83333 4.22471C6.07565 4.22471 6.27206 4.42113 6.27206 4.66342V5.39461H7.00327C7.24552 5.39461 7.44193 5.59102 7.44193 5.83333C7.44193 6.07565 7.24552 6.27206 7.00327 6.27206H6.27206V7.00327C6.27206 7.24552 6.07565 7.44193 5.83333 7.44193C5.59102 7.44193 5.39461 7.24552 5.39461 7.00327V6.27206H4.66342C4.42113 6.27206 4.22471 6.07565 4.22471 5.83333Z" fill="#C7C7C7"/>
</svg>
