<svg width="12" height="12" viewBox="0 0 12 12" fill="none" xmlns="http://www.w3.org/2000/svg">
<path d="M3.24971 7.80292C4.1747 5.91975 4.63719 4.97819 5.30289 4.75384C5.64741 4.63772 6.01958 4.63772 6.3641 4.75384C7.0298 4.97819 7.49232 5.91975 8.41731 7.80292L8.92989 8.8465C9.16882 9.33295 9.28829 9.5762 9.31658 9.74192C9.43395 10.4295 8.92528 11.0632 8.23998 11.0832C8.07478 11.088 7.81683 11.0173 7.30093 10.8759C7.00605 10.7951 6.85864 10.7547 6.71124 10.7249C6.13175 10.6076 5.53524 10.6076 4.95575 10.7249C4.80835 10.7547 4.66092 10.7951 4.36609 10.8759C3.85016 11.0173 3.59219 11.088 3.427 11.0832C2.74171 11.0632 2.23302 10.4295 2.35039 9.74192C2.37868 9.5762 2.49815 9.33295 2.7371 8.8465L3.24971 7.80292Z" fill="#966AFD"/>
<path d="M2.41794 2.05769C2.65817 3.00896 3.33744 3.64237 3.93513 3.47244C4.53282 3.30251 4.82258 2.39359 4.58238 1.44232C4.34215 0.491039 3.66288 -0.142368 3.06519 0.027563C2.4675 0.197494 2.17772 1.10641 2.41794 2.05769Z" fill="#966AFD"/>
<path d="M9.24934 2.05769C9.00912 3.00896 8.32989 3.64237 7.73215 3.47244C7.13446 3.30251 6.84472 2.39359 7.08494 1.44232C7.32516 0.491039 8.00439 -0.142368 8.60213 0.027563C9.19982 0.197494 9.48956 1.10641 9.24934 2.05769Z" fill="#966AFD"/>
<path d="M0.117634 7.00667C0.380134 7.70959 0.997312 8.13659 1.49613 7.96031C1.99496 7.78408 2.18653 7.07131 1.92403 6.36839C1.66153 5.66544 1.04435 5.23848 0.545532 5.41474C0.0467066 5.591 -0.144866 6.30376 0.117634 7.00667Z" fill="#966AFD"/>
<path d="M11.5495 6.00664C11.287 6.70956 10.6698 7.13656 10.171 6.96028C9.67219 6.78405 9.48062 6.07128 9.74312 5.36836C10.0056 4.66541 10.6228 4.23845 11.1216 4.41471C11.6204 4.59097 11.812 5.30373 11.5495 6.00664Z" fill="#966AFD"/>
</svg>
