<svg width="104" height="108" viewBox="0 0 104 108" fill="none" xmlns="http://www.w3.org/2000/svg">
<path d="M42.4668 40.1396H42.4658H42.4668ZM42.4668 40.1396L42.4678 40.1387L42.4668 40.1396ZM60.2031 1C63.9314 1 68.7581 2.05064 74.6611 6.08496L75.1875 6.43066C77.8611 8.12015 81.317 9.36174 83.7549 9.74902L87.2764 9.89844H87.2793C88.8451 9.96928 89.9106 11.3861 89.8184 12.8711L89.8174 12.8701L89.5605 17.8564L89.4346 20.3027L87.8125 18.4668C87.089 17.648 86.0924 17.167 85.0049 17.1768H85.0039C82.929 17.193 81.133 19.0466 81.1484 21.4844L81.1553 21.7109C81.2819 24.0312 83.0561 25.7452 85.0625 25.7295H85.0635C85.5424 25.7262 86.0005 25.6243 86.4209 25.4434L88.6943 24.4648L87.7383 26.748L85.7188 31.5713L85.2842 32.6084L84.3057 32.0557C78.7737 28.9362 74.5456 28.5304 71.3096 28.6377C70.49 28.6649 69.7288 28.7248 69.0088 28.7861C68.2985 28.8466 67.6068 28.9103 66.9717 28.9365C65.7191 28.9882 64.4577 28.9119 63.3789 28.2207V28.2217C62.4139 27.6042 61.8248 26.8032 61.541 25.8506C61.4056 25.3959 61.3451 24.9234 61.333 24.4443C56.9228 25.675 51.6576 27.5697 46.2559 30.4805C37.3353 35.288 30.1274 41.6288 24.6494 49.4463C28.5048 47.6771 33.7104 45.7498 39.7686 44.6846C39.5399 43.3751 39.7012 42.1526 39.9395 41.2168C40.094 40.6098 40.2849 40.1054 40.4385 39.75C40.5155 39.5717 40.5841 39.4288 40.6348 39.3281C40.66 39.278 40.6808 39.238 40.6963 39.209C40.704 39.1945 40.7109 39.1828 40.7158 39.1738C40.7183 39.1693 40.72 39.1652 40.7217 39.1621C40.7225 39.1606 40.724 39.1594 40.7246 39.1582L40.7256 39.1562C40.7257 39.156 40.7257 39.1558 41.3164 39.4902L40.7256 39.1553L41.7158 37.4072L42.5137 39.251C43.2451 40.9402 44.1222 42.0001 45.1221 42.6807C46.1193 43.3593 47.3228 43.7172 48.8115 43.8623C51.7335 43.8483 54.7716 44.0815 57.8877 44.6533C58.3403 44.6926 58.7746 44.7352 59.1904 44.7803C59.1837 43.3563 58.8237 41.7276 58.25 40.0586C57.5456 38.0094 56.5563 35.9981 55.6621 34.3984L54.7988 32.8555L56.5664 32.9111L56.5352 33.9102C56.5651 32.9605 56.5667 32.9134 56.5674 32.9111H56.582C56.5894 32.9114 56.599 32.9125 56.6104 32.9131C56.6333 32.9143 56.6644 32.9162 56.7031 32.9189C56.7806 32.9245 56.8892 32.9333 57.0264 32.9492C57.3007 32.981 57.6905 33.0386 58.1758 33.1426C59.1464 33.3505 60.5012 33.7446 62.0869 34.4883C65.2666 35.9796 69.3419 38.8641 73.0977 44.418L73.4707 44.9512C75.3881 47.5939 78.1906 50.127 80.332 51.4619L83.5576 52.9951L83.5605 52.9961C84.9399 53.6564 85.4648 55.3374 84.875 56.6943L84.876 56.6953L82.9307 61.2529L81.9473 63.5576L81.0742 61.208C80.677 60.1389 79.8938 59.2727 78.8643 58.8408V58.8418C76.9309 58.0343 74.6749 59.0427 73.875 61.2773L73.874 61.2764C73.0669 63.5459 74.1373 66.0163 76.1172 66.8389L76.1201 66.8408C76.5706 67.0295 77.0335 67.1172 77.4844 67.1172H79.8242L78.207 68.8086L74.6875 72.4873L73.8984 73.3125L73.1846 72.4219C69.0892 67.3144 65.2842 65.2546 62.2344 64.0693C61.4621 63.7692 60.7326 63.5235 60.042 63.2949C59.3604 63.0693 58.6958 62.8543 58.0967 62.627C56.9107 62.177 55.7807 61.6107 55.0273 60.5615V60.5605C54.449 59.7545 54.161 58.9258 54.1348 58.0645C54.1238 57.7031 54.1609 57.3498 54.2305 57.0049C53.5301 56.9796 52.7967 56.9651 52.0342 56.9688C40.0249 58.0589 31.3872 63.8578 26.8369 67.7568C27.4927 67.9247 28.1528 68.1215 28.8174 68.3457C31.4354 69.2285 34.1303 70.5542 36.9766 72.3545C37.4888 71.2072 38.3025 70.3813 39.0371 69.8232C39.5406 69.4408 40.0224 69.171 40.3799 68.9961C40.5595 68.9082 40.7104 68.8431 40.8193 68.7988C40.8739 68.7767 40.9185 68.7592 40.9512 68.7471C40.9674 68.741 40.9809 68.7361 40.9912 68.7324C40.9962 68.7306 41.0004 68.7288 41.0039 68.7275C41.0057 68.7269 41.0074 68.7261 41.0088 68.7256H41.0117C41.0139 68.7306 41.0376 68.7976 41.3369 69.6709L41.0127 68.7246L42.457 68.2295L42.333 69.752C42.1673 71.7875 42.4158 73.3098 42.9443 74.6582C43.4718 76.0035 44.2978 77.2279 45.3926 78.668C46.0316 79.2149 47.3977 80.4092 48.7109 81.54C49.4392 82.1671 50.1406 82.7639 50.71 83.2373C51.0695 82.2208 51.6031 81.38 52.0986 80.7471C52.4726 80.2694 52.835 79.8976 53.1064 79.6426C53.2424 79.5149 53.3566 79.4151 53.4395 79.3457C53.4809 79.311 53.5152 79.2834 53.54 79.2637C53.5523 79.2539 53.5626 79.2463 53.5703 79.2402C53.5741 79.2373 53.5774 79.2345 53.5801 79.2324C53.5814 79.2314 53.5829 79.2303 53.584 79.2295L53.5859 79.2275C53.5864 79.2276 53.5977 79.2418 54.0977 79.9004L53.5869 79.2275L54.9551 78.1885L55.1826 79.8916C55.505 82.3116 56.1931 83.9325 57.084 85.084C57.9493 86.2023 59.0633 86.9498 60.3975 87.5439C64.0878 88.0962 67.771 87.6227 71.2852 86.6641C69.1908 85.4202 66.6328 84.5343 64.5381 83.9736L62.8828 83.5303L64.083 82.3076L64.7969 83.0078C64.1297 82.3535 64.0864 82.3099 64.084 82.3066L64.085 82.3057C64.0857 82.305 64.086 82.3036 64.0869 82.3027C64.0887 82.3009 64.0912 82.2985 64.0938 82.2959C64.0989 82.2907 64.1061 82.2844 64.1143 82.2764C64.1307 82.2602 64.153 82.238 64.1816 82.2109C64.239 82.1567 64.3214 82.0819 64.4277 81.9893C64.6404 81.8039 64.9511 81.5479 65.3604 81.252C66.1787 80.6601 67.3921 79.9044 69 79.2188C72.2249 77.8436 77.0104 76.7635 83.3301 77.8271H83.3311C86.5122 78.3665 90.4661 78.0235 93.0107 77.2842L96.2969 75.9082L96.2988 75.9072C97.7603 75.2984 99.3177 76.1381 99.7939 77.585H99.793L101.396 82.2793L102.146 84.4785L100.033 83.5117C99.0945 83.0824 98.0103 83.0579 97.002 83.5371C95.0552 84.4703 94.1015 87.0038 95.0068 89.2178C95.9033 91.4001 98.1971 92.2932 100.095 91.3838H100.097C100.543 91.1708 100.936 90.8758 101.27 90.5186L103 88.667V97.5645L101.923 97.4814C95.7087 97.0004 91.6599 98.4424 88.7021 99.9375C87.9542 100.316 87.2725 100.699 86.6299 101.065C85.9953 101.427 85.381 101.782 84.8057 102.078C83.6783 102.659 82.4881 103.136 81.2324 102.965H81.2314C80.479 102.861 79.8316 102.606 79.2891 102.195C78.751 101.788 78.3646 101.264 78.0742 100.694C77.6685 99.8981 77.4162 98.932 77.2061 97.9307C73.6222 99.1414 68.9181 100.312 63.6836 100.312C60.8018 100.312 57.7572 99.9569 54.6514 99.0586L53.9121 98.8613C50.2229 97.8303 46.6167 96.0777 43.1582 94.1689C41.3116 93.1498 39.4906 92.0775 37.7188 91.04C35.9416 89.9995 34.213 88.9936 32.5254 88.0938C23.4569 83.2582 13.9936 85.9848 7.94238 92.999C6.09944 95.1349 4.07928 98.6121 2.86719 100.721L1 103.969V56.5547L1.08301 56.3633C2.77285 52.4845 4.60297 48.9041 6.7373 45.6191C5.72608 44.9739 5.03889 44.0362 4.59668 43.2461C4.29176 42.7013 4.08076 42.1893 3.94629 41.8135C3.87872 41.6246 3.83 41.4671 3.79688 41.3545C3.78031 41.2982 3.76762 41.2527 3.75879 41.2197C3.75439 41.2033 3.75063 41.1898 3.74805 41.1797C3.74678 41.1747 3.74595 41.1703 3.74512 41.167C3.74475 41.1655 3.74442 41.1642 3.74414 41.1631L3.74316 41.1611C3.74308 41.1608 3.74351 41.1596 4.71484 40.9219L3.74316 41.1592L3.3291 39.4658L5 39.9639C6.38778 40.377 7.60095 40.3465 8.83887 39.9375C10.0934 39.523 11.4167 38.704 12.9932 37.4531C14.5135 35.7424 16.0838 34.1384 17.6904 32.6357C16.718 31.4619 16.1754 30.1658 15.8711 29.1182C15.6828 28.47 15.5809 27.9023 15.5264 27.4932C15.4991 27.2883 15.4836 27.1216 15.4746 27.0029C15.4701 26.9436 15.4676 26.8958 15.4658 26.8613C15.4649 26.8441 15.4643 26.8299 15.4639 26.8193C15.4637 26.8143 15.463 26.8101 15.4629 26.8066V26.7988C15.4636 26.7985 15.4898 26.797 16.4629 26.7695L15.4629 26.7979L15.415 25.1055L16.9209 25.8809C18.5709 26.7309 19.9343 27.0525 21.3457 26.9941C22.7665 26.9353 24.3138 26.4879 26.3408 25.6572C27.7343 24.6868 29.1335 23.7789 30.5283 22.9277C29.8267 21.5736 29.6261 20.0465 29.5947 18.8496C29.5748 18.0889 29.6227 17.4172 29.6748 16.9355C29.7009 16.6942 29.7285 16.4982 29.75 16.3604C29.7607 16.2915 29.7695 16.237 29.7764 16.1982C29.7798 16.179 29.7831 16.1636 29.7852 16.1523C29.7862 16.1467 29.7864 16.1412 29.7871 16.1377C29.7874 16.1362 29.7879 16.1349 29.7881 16.1338L29.7891 16.1318V16.1309L30.1748 14.1562L31.5156 15.6553C33.0225 17.3398 34.5222 18.0526 35.9629 18.2666C37.4217 18.4832 38.9172 18.2024 40.4414 17.7158C41.3855 17.2923 42.3161 16.8937 43.2305 16.5186C42.5935 15.0469 42.3397 13.5249 42.2461 12.3223C42.1877 11.5722 42.1905 10.9269 42.208 10.4668C42.2168 10.2364 42.2296 10.051 42.2402 9.9209C42.2455 9.85617 42.2502 9.80499 42.2539 9.76855C42.2557 9.75032 42.2566 9.73527 42.2578 9.72461C42.2584 9.71947 42.2594 9.71524 42.2598 9.71191C42.26 9.71022 42.2596 9.70823 42.2598 9.70703L42.2607 9.70605V9.70508V9.7041L42.499 7.69043L43.9512 9.10547C45.8304 10.936 47.3468 11.8413 48.9648 12.2812C50.5997 12.7257 52.4282 12.7218 55.0205 12.5537C57.791 11.821 60.0363 11.3654 61.5352 11.0996C60.9702 9.91206 60.1227 8.70535 59.1289 7.5498C57.8379 6.04864 56.3523 4.68882 55.0674 3.63184L53.8633 2.6416L55.2666 1.95996H55.2676L55.2686 1.95898C55.2694 1.95858 55.2705 1.95849 55.2715 1.95801C55.2738 1.9569 55.2771 1.95561 55.2803 1.9541C55.2866 1.9511 55.2949 1.94689 55.3047 1.94238C55.3243 1.93333 55.3508 1.92166 55.3838 1.90723C55.4502 1.87816 55.5436 1.83878 55.6621 1.79297C55.8991 1.70141 56.2377 1.58304 56.665 1.46582C57.5191 1.23156 58.7338 1 60.2031 1ZM56.1367 3.76074H56.1387V3.75977H56.1396C56.1397 3.75975 56.1391 3.75974 56.1387 3.75879L56.1367 3.76074Z" fill="#0087C0" stroke="#002738" stroke-width="2"/>
</svg>
