<svg width="158" height="218" viewBox="0 0 158 218" fill="none" xmlns="http://www.w3.org/2000/svg">
<path d="M76.2533 163.665C71.272 162.735 67.4216 159.134 64.2367 156.159C62.5531 154.593 60.2494 152.439 59.0612 152.126C58.9064 152.08 58.6206 152.035 58.1222 152.035C56.5571 152.035 54.3479 152.543 52.2113 153.028C49.4032 153.673 46.4918 154.338 43.5195 154.338C40.7174 154.338 38.2436 153.722 36.1343 152.506C35.4687 152.117 34.8516 151.685 34.2928 151.227L12.8008 197.642L39.5139 196.843L56.1804 217.737L78.7301 169.024L81.2162 163.666C80.4171 163.824 79.5874 163.906 78.7301 163.906C77.8761 163.905 77.0464 163.824 76.2533 163.665Z" fill="url(#paint0_linear_3017_433)"/>
<path d="M121.337 152.499C119.228 153.724 116.742 154.341 113.952 154.341C113.952 154.341 113.952 154.341 113.943 154.341C110.968 154.341 108.068 153.675 105.261 153.031C103.124 152.545 100.915 152.038 99.3373 152.038C98.8508 152.038 98.5561 152.083 98.3983 152.129C97.2131 152.442 94.9094 154.596 93.2347 156.161C92.442 156.9 91.6123 157.675 90.74 158.438L82.2852 176.696L101.283 217.739L117.958 196.845L144.671 197.644L123.17 151.217C122.607 151.688 122 152.11 121.337 152.499Z" fill="url(#paint1_linear_3017_433)"/>
<path d="M78.7326 34.5312C54.3227 34.5312 34.5322 54.3218 34.5322 78.7316C34.5322 103.141 54.3223 122.932 78.7326 122.932C103.142 122.932 122.933 103.141 122.933 78.7316C122.933 54.3218 103.142 34.5312 78.7326 34.5312Z" fill="url(#paint2_linear_3017_433)"/>
<path d="M145.906 96.7335C147.544 90.6096 157.463 85.3702 157.463 78.73C157.463 72.0928 147.544 66.8534 145.906 60.7299C144.213 54.3933 150.133 44.8991 146.927 39.3561C143.669 33.7306 132.461 34.135 127.894 29.5671C123.326 25.0082 123.733 13.7942 118.105 10.5336C112.564 7.33044 103.067 13.2502 96.7339 11.5577C90.6189 9.92588 85.3706 0 78.73 0C72.1017 0 66.8534 9.92588 60.7295 11.5577C54.4022 13.2502 44.908 7.33044 39.3561 10.5336C33.7399 13.7946 34.1346 25.0082 29.5761 29.5671C25.0116 34.135 13.7942 33.7306 10.5425 39.3561C7.33044 44.8991 13.2592 54.3933 11.5666 60.7299C9.92546 66.8534 0 72.0928 0 78.73C0 85.3702 9.92546 90.6096 11.5666 96.7335C13.2592 103.07 7.33044 112.564 10.5425 118.107C13.7942 123.733 25.0116 123.325 29.5761 127.893C31.6761 129.993 32.7188 133.494 33.785 136.974C34.6878 139.94 35.6086 142.894 37.1923 144.966C37.8 145.769 38.511 146.44 39.3561 146.927C44.8991 150.133 54.4022 144.213 60.7295 145.906C64.6437 146.948 68.1964 151.367 71.9805 154.433C74.1171 156.162 76.3387 157.463 78.73 157.463C81.1247 157.463 83.3434 156.162 85.4889 154.433C89.2024 151.431 92.6913 147.121 96.5022 145.979C96.5753 145.952 96.6604 145.924 96.7335 145.906C103.067 144.213 112.564 150.133 118.104 146.927C118.952 146.441 119.673 145.76 120.28 144.958C123.723 140.436 124.018 131.762 127.893 127.893C132.46 123.325 143.669 123.733 146.926 118.108C150.133 112.564 144.213 103.07 145.906 96.7335ZM78.73 131.218C77.7089 131.218 76.6972 131.19 75.694 131.127C63.0668 130.41 51.6397 125.234 42.9662 117.138C32.6699 107.552 26.2423 93.8982 26.2423 78.73C26.2423 49.7434 49.7434 26.2423 78.73 26.2423C107.72 26.2423 131.218 49.7438 131.218 78.73C131.218 107.72 107.72 131.218 78.73 131.218Z" fill="url(#paint3_linear_3017_433)"/>
<defs>
<linearGradient id="paint0_linear_3017_433" x1="47.0085" y1="151.227" x2="47.0085" y2="217.737" gradientUnits="userSpaceOnUse">
<stop stop-color="#81DDFF"/>
<stop offset="1" stop-color="#CCF1FF"/>
</linearGradient>
<linearGradient id="paint1_linear_3017_433" x1="113.478" y1="151.217" x2="113.478" y2="217.739" gradientUnits="userSpaceOnUse">
<stop stop-color="#81DDFF"/>
<stop offset="1" stop-color="#CCF1FF"/>
</linearGradient>
<linearGradient id="paint2_linear_3017_433" x1="78.7324" y1="34.5312" x2="78.7324" y2="122.932" gradientUnits="userSpaceOnUse">
<stop stop-color="#81DDFF"/>
<stop offset="1" stop-color="#CCF1FF"/>
</linearGradient>
<linearGradient id="paint3_linear_3017_433" x1="78.7317" y1="0" x2="78.7317" y2="157.463" gradientUnits="userSpaceOnUse">
<stop stop-color="#81DDFF"/>
<stop offset="1" stop-color="#CCF1FF"/>
</linearGradient>
</defs>
</svg>
