<svg width="9" height="14" viewBox="0 0 9 14" fill="none" xmlns="http://www.w3.org/2000/svg">
<path d="M5.7998 11H3.2998V13.5H5.7998V11Z" fill="#FFB800"/>
<path fill-rule="evenodd" clip-rule="evenodd" d="M4.5 2.35294C3.1554 2.35294 2.25 3.63031 2.25 4.70588H0C0 2.58532 1.68265 0 4.5 0C7.30744 0 9 2.52004 9 4.70588C9 6.56247 7.75316 7.50377 6.98197 8.08612C6.93664 8.12035 6.89299 8.15329 6.85125 8.18518C6.00233 8.83388 5.625 9.20365 5.625 10H3.375C3.375 7.92729 4.68135 6.92906 5.52004 6.28824L5.52375 6.28541C6.46031 5.56976 6.75 5.29859 6.75 4.70588C6.75 3.588 5.85439 2.35294 4.5 2.35294Z" fill="#FFB800"/>
</svg>
