<svg width="43" height="57" viewBox="0 0 43 57" fill="none" xmlns="http://www.w3.org/2000/svg">
<path fill-rule="evenodd" clip-rule="evenodd" d="M0 6.84706L0.0176466 28.1718C0.0176466 45.7765 21.0106 56.2694 21.0106 56.2694C21.0106 56.2694 42.0106 46.3624 42.0106 28.1153C42.0106 9.86823 42.0141 6.84706 42.0141 6.84706C42.0141 6.84706 32.6118 0 21.0106 0C9.40235 0 0 6.84706 0 6.84706ZM38.7494 28.9235C38.7494 42.8435 22.08 52.5071 20.9435 53.0541V53.1071L20.8906 53.0823L20.8376 53.1071V53.0541C19.7012 52.5071 3.03176 42.8435 3.03176 28.9235L3.01765 8.93294C3.01765 8.93294 10.9871 3.37412 20.8376 3.32823C20.8376 3.32823 20.8729 3.32823 20.8906 3.32823L20.9435 3.32471C30.7941 3.37059 38.7635 8.93294 38.7635 8.93294L38.7494 28.9235ZM34.8388 29.4882C34.8388 41.6118 21.8824 48.7659 20.9965 49.2423V49.2847C20.9965 49.2847 20.9612 49.2706 20.9576 49.2635L20.9153 49.2847V49.2388C20.0294 48.7624 7.07647 41.6082 7.07647 29.4847L7.06235 12.0882C7.06235 12.0882 13.26 7.25294 20.9153 7.21059H20.9576H20.9965C28.6553 7.25294 34.8459 12.0882 34.8459 12.0882L34.8388 29.4882Z" fill="url(#paint0_linear_3039_130)"/>
<defs>
<linearGradient id="paint0_linear_3039_130" x1="21.0071" y1="0" x2="21.0071" y2="56.2694" gradientUnits="userSpaceOnUse">
<stop stop-color="#E31447"/>
<stop offset="1" stop-color="#9F0003"/>
</linearGradient>
</defs>
</svg>
