<svg width="72" height="48" viewBox="0 0 72 48" fill="none" xmlns="http://www.w3.org/2000/svg">
<path d="M0.121098 44.5629C-0.130528 45.2781 0.00779182 46.105 0.553438 46.7074C1.34676 47.5835 2.70067 47.6526 3.57719 46.8613C4.11545 46.3757 4.34712 45.6788 4.2633 45.01L11.9307 38.0747L17.1884 43.88L20.3913 41.0006C14.4964 38.2089 10.3045 33.8809 8.26461 27.6107L5.06145 30.49L10.2902 36.263L2.62713 43.1948C1.96686 43.0408 1.24472 43.2007 0.704247 43.6885C0.430295 43.9359 0.235372 44.2379 0.121098 44.5629ZM15.2163 28.4176L13.7649 33.1561L41.9283 7.72845L43.5661 9.54236L15.1827 35.1689L20.3562 34.115C20.7473 33.7037 23.3538 30.9795 26.9825 28.0491C30.7117 25.0375 35.1658 21.9051 39.2795 21.8152C39.7464 21.3389 42.4791 18.5253 45.5442 14.2836C48.5984 10.0566 51.6352 4.70078 52.3274 -2.89257e-05C47.3865 0.180934 41.8007 2.71205 37.38 5.38079C33.2807 7.85563 30.3411 10.2629 29.5191 10.9551C29.015 15.0414 25.3974 19.1294 21.9792 22.5108C18.6697 25.7845 15.6792 28.0669 15.2163 28.4176ZM23.192 34.7204C25.5873 34.7256 28.5322 35.0317 31.8112 35.5259L41.4233 38.6491L42.1784 36.325L36.94 34.6229C33.9834 31.6449 38.2046 29.4036 45.6462 30.4806L65.6698 36.9867L66.425 34.6625L46.6813 28.2474C45.5511 26.1449 48.2693 24.9258 52.2659 24.7029L56.6406 26.1244L57.3958 23.7999L54.1987 22.7611C52.3102 19.8022 55.3682 16.7548 62.7272 17.2919L71.0459 19.9948L71.8011 17.6706L63.4597 14.9604C56.941 10.4258 54.9515 5.43746 54.4893 1.81668C53.3938 6.78191 50.4063 11.7271 47.5247 15.7148C44.0673 20.4997 40.6787 23.899 40.6787 23.899L40.2937 24.2854L39.7493 24.2568C36.9955 24.1127 32.2771 26.9147 28.518 29.9505C26.2989 31.7424 24.3949 33.5372 23.192 34.7204ZM46.7262 39.0873C46.2557 40.5353 47.0482 42.0904 48.496 42.5608C49.9442 43.0313 51.4991 42.239 51.9696 40.791C52.44 39.343 51.6479 37.788 50.1997 37.3175C48.7518 36.847 47.1967 37.6393 46.7262 39.0873ZM59.1291 4.10166C59.1291 4.10166 64.8273 8.85159 66.2754 9.32208C67.7234 9.79257 69.2784 9.00026 69.7489 7.55224C70.2194 6.10422 69.4271 4.54921 67.979 4.07872C66.531 3.60823 59.1291 4.10166 59.1291 4.10166ZM59.8569 25.8844C59.3865 27.3324 60.1786 28.8876 61.6267 29.3581C63.0746 29.8286 64.6299 29.0359 65.1003 27.588C65.5708 26.14 64.7783 24.585 63.3305 24.1145C61.8823 23.644 60.3274 24.4363 59.8569 25.8844Z" fill="url(#paint0_linear_3039_133)"/>
<defs>
<linearGradient id="paint0_linear_3039_133" x1="47.0301" y1="-2.72801" x2="27.9753" y2="55.9165" gradientUnits="userSpaceOnUse">
<stop stop-color="#FFB800"/>
<stop offset="1" stop-color="#C89000"/>
</linearGradient>
</defs>
</svg>
