<svg width="35" height="35" viewBox="0 0 35 35" fill="none" xmlns="http://www.w3.org/2000/svg">
      <path
        d="M17.4486 31.4107C22.4136 31.4107 26.5204 27.331 26.5204 22.2622C26.5204 21.4586 26.3979 20.7169 26.214 20.0369C25.4171 22.1386 24.6203 24.1785 23.8234 26.2801C23.7621 26.1565 23.7621 26.1565 23.7008 26.0947C23.2717 24.9202 22.8427 23.8076 22.3523 22.6331C22.291 22.4476 22.291 22.2622 22.3523 22.0768C22.7814 20.9641 23.2105 19.7896 23.6395 18.677C23.7008 18.5533 23.7621 18.4915 23.8847 18.4915C24.4364 18.4915 24.9881 18.4915 25.5397 18.4915C24.0686 15.4008 20.9425 13.2373 17.326 13.2373C13.7095 13.2373 10.5834 15.4008 9.11232 18.4915C9.54138 18.4915 9.97045 18.4915 10.3995 18.4915C10.5834 18.4915 10.706 18.5533 10.7673 18.7388C11.4416 20.5933 12.1771 22.4476 12.9127 24.3021C12.9739 24.4258 12.9739 24.4876 13.0353 24.673C13.0966 24.4876 13.1578 24.3639 13.2192 24.1785C13.8934 22.3858 14.629 20.5314 15.3033 18.7388C15.3645 18.5533 15.4258 18.4915 15.671 18.4915C16.713 18.4915 17.6938 18.4915 18.7358 18.4915C18.9197 18.4915 18.981 18.5533 19.0423 18.7388C20.1457 21.5823 21.249 24.4876 22.291 27.331C22.291 27.3928 22.3523 27.4546 22.3523 27.5782C22.2297 27.5782 22.1684 27.5782 22.1071 27.5782C21.249 27.5782 20.4521 27.5782 19.5939 27.5782C19.4101 27.5782 19.2875 27.5164 19.2262 27.331C18.5519 25.6002 17.8777 23.8694 17.2647 22.1386C17.2647 22.0768 17.2034 21.9532 17.1421 21.8295C16.8356 22.5713 16.5905 23.3131 16.3452 23.993C15.9162 25.1057 15.4871 26.2801 15.058 27.3928C14.9968 27.5782 14.9354 27.64 14.7515 27.64C13.6482 27.64 12.4836 27.64 11.3802 27.64C11.1964 27.64 11.1351 27.6401 11.0737 27.4546C10.2156 25.1675 9.35748 22.9422 8.49934 20.7169C8.37676 21.2732 8.31543 21.8295 8.31543 22.4476C8.43801 27.2692 12.4836 31.4107 17.4486 31.4107Z"
        fill="#FFCC00"
      />
      <path
        d="M24.8042 14.412C24.6816 14.1647 24.4977 13.9175 24.3752 13.6702L23.0266 11.3213C22.475 11.6921 21.862 11.9394 21.249 12.1867C22.5976 12.6812 23.7622 13.423 24.8042 14.412Z"
        fill="#FFCC00"
      />
      <path
        d="M17.4485 11.1976C19.1649 11.1976 20.7586 10.7031 22.1684 9.83767L18.4293 3.28534C18.0003 2.54356 16.9582 2.54356 16.5292 3.28534L12.79 9.83767C14.1386 10.7031 15.7323 11.1976 17.4485 11.1976Z"
        fill="#FFCC00"
      />
      <path
        d="M28.1752 22.2621C28.1752 23.3748 27.9913 24.3638 27.7461 25.3529C28.4817 24.6729 29.2785 24.1166 30.1366 23.6221L28.5429 20.8404C28.359 20.5313 28.1752 20.1605 27.9299 19.7896C28.0526 20.5931 28.1752 21.3968 28.1752 22.2621Z"
        fill="#FFCC00"
      />
      <path
        d="M13.7095 12.1867C13.0965 11.9394 12.4835 11.6921 11.9319 11.3213L10.5834 13.6702C10.4608 13.9175 10.3382 14.1647 10.1543 14.412C11.1963 13.423 12.361 12.6812 13.7095 12.1867Z"
        fill="#FFCC00"
      />
      <path
        d="M7.27313 25.5384C6.96665 24.4876 6.78277 23.4368 6.78277 22.2623C6.78277 21.4587 6.90536 20.6551 7.08925 19.8516C6.84407 20.2224 6.66017 20.5933 6.47629 20.9024L4.82129 23.7459C5.74073 24.1785 6.53759 24.7967 7.27313 25.5384Z"
        fill="#FFCC00"
      />
      <path
        d="M30.9337 25.1055C28.1141 26.589 26.0913 29.4943 25.9688 32.8941H33.5081C34.3664 32.8941 34.8567 31.9669 34.4276 31.2251L30.9337 25.1055Z"
        fill="#FFCC00"
      />
      <path
        d="M24.8041 30.1128C23.2104 31.5964 21.249 32.5854 18.981 32.8945C19.9617 32.8945 20.8811 32.8945 21.6167 32.8945H24.3138C24.375 31.9672 24.4977 31.0401 24.8041 30.1128Z"
        fill="#FFCC00"
      />
      <path
        d="M4.02438 25.1675L0.530489 31.2871C0.101416 32.0288 0.653082 32.9561 1.44993 32.9561H8.86677C8.74419 29.5562 6.78271 26.651 4.02438 25.1675Z"
        fill="#FFCC00"
      />
      <path
        d="M10.0317 29.9888C10.3382 30.916 10.4608 31.905 10.5221 32.9559H13.3418C14.0773 32.9559 14.9967 32.9559 15.9775 32.9559C13.6483 32.585 11.6254 31.5342 10.0317 29.9888Z"
        fill="#FFCC00"
      />
    </svg>