<svg width="104" height="104" viewBox="0 0 104 104" fill="none" xmlns="http://www.w3.org/2000/svg">
<path d="M52.042 1C61.8843 1.00001 70.8326 1.60692 77.417 2.59863C80.7029 3.09355 83.4387 3.69004 85.4131 4.37012C86.3965 4.70888 87.2373 5.08412 87.8721 5.50586C88.2434 5.75257 88.6095 6.05985 88.874 6.43848H91.4961V7.43848C91.4961 9.32488 91.4356 11.1913 91.3242 13.0332H94.9219C94.9161 11.7104 94.8771 10.3842 94.7988 9.05664L94.752 8.25977L95.5186 8.03711L101.575 6.28027L102.779 5.93066L102.853 7.18164C104.233 30.7579 95.9404 54.8495 78.1807 70.9893L77.2412 71.8428L76.6309 70.7295L73.0459 64.1855L72.666 63.4912L73.2539 62.9619C73.9595 62.3263 74.6471 61.6766 75.3184 61.0146C74.5072 60.2482 73.6466 59.5205 72.7412 58.835C69.8761 61.537 66.7547 63.7013 63.4365 65.2246C62.3259 66.1284 61.7911 66.8584 61.5986 67.4033C61.4309 67.8784 61.5006 68.2598 61.8213 68.6689C62.1897 69.1387 62.9023 69.6437 64.0381 70.1338C65.1557 70.6161 66.5931 71.0468 68.3037 71.4199L68.2676 73.3809C65.0694 73.9569 63.1486 75.0712 62.1377 76.3594C61.153 77.6141 60.9132 79.1863 61.4023 80.9951C62.3984 84.678 66.384 89.0715 72.3662 92.2871C74.9913 92.7502 77.1794 93.3098 78.7432 93.9551C79.5381 94.2831 80.2301 94.6559 80.7393 95.0908C81.2411 95.5196 81.6923 96.1226 81.6924 96.8975C81.6924 97.6588 81.2561 98.2548 80.7666 98.6807C80.2713 99.1115 79.599 99.4802 78.8281 99.8047C77.2781 100.457 75.0959 101.022 72.4746 101.489C67.2156 102.426 59.9907 103 52.0381 103C44.0854 103 36.8606 102.426 31.6016 101.489C28.9802 101.022 26.7981 100.457 25.248 99.8047C24.4772 99.4802 23.8049 99.1116 23.3096 98.6807C22.8201 98.2548 22.3838 97.6588 22.3838 96.8975C22.3839 96.1222 22.8358 95.5194 23.3379 95.0908C23.8474 94.656 24.5395 94.283 25.335 93.9551C26.9021 93.309 29.096 92.7487 31.7275 92.2852C37.7077 89.0699 41.6919 84.6778 42.6875 80.9961C43.1765 79.1875 42.9356 77.6155 41.9512 76.3613C40.9405 75.0737 39.0205 73.959 35.8232 73.3838L35.7871 71.4229C37.4977 71.0497 38.9348 70.62 40.0527 70.1377C41.1889 69.6476 41.9018 69.1427 42.2705 68.6729C42.5916 68.2636 42.6609 67.8822 42.4932 67.4072C42.3006 66.8625 41.7655 66.1331 40.6543 65.2295C37.3696 63.7182 34.2778 61.5815 31.4326 58.915C30.4616 59.6618 29.5437 60.4581 28.6816 61.2998C29.2931 61.8555 29.9196 62.4017 30.5635 62.9346L31.1904 63.4531L30.8105 64.1729L27.3496 70.7168L26.7275 71.8926L25.7705 70.9688C8.6488 54.4264 -0.667913 31.1803 1.24707 7.28418L1.33984 6.12598L2.47168 6.39062L8.40332 7.77637L9.21484 7.96582L9.1748 8.79785C9.10658 10.2096 9.07741 11.6215 9.08301 13.0332H12.7627C12.6513 11.1913 12.5908 9.32488 12.5908 7.43848V6.43848H15.209C15.4735 6.05981 15.8396 5.7526 16.2109 5.50586C16.8457 5.08411 17.6865 4.70889 18.6699 4.37012C20.6442 3.69002 23.38 3.09357 26.666 2.59863C33.2505 1.60689 42.1995 1 52.042 1ZM9.5 20.9609C10.7648 33.3514 14.9716 45.2375 22.6709 54.8896C23.5623 53.9231 24.5146 53.0027 25.5195 52.1318C19.6475 43.9717 15.4147 33.1532 13.5918 20.9609H9.5ZM90.5029 20.9609C88.6876 33.109 84.4757 43.8931 78.6367 52.04C79.5213 52.7964 80.3638 53.5905 81.1621 54.4199C88.632 44.7316 93.1684 33.1668 94.5088 20.9609H90.5029ZM52.0381 4.48145C44.9013 4.48145 38.4414 4.91878 33.708 5.62402C31.3358 5.97748 29.433 6.39288 28.1064 6.83984C27.4403 7.0643 26.9613 7.28277 26.6504 7.48047C26.5647 7.53497 26.5008 7.58181 26.4541 7.62012C26.621 7.75716 26.9106 7.93177 27.3623 8.12305C27.6308 8.23667 27.9375 8.34971 28.2871 8.46191C28.738 8.6042 29.2408 8.74666 29.7939 8.87891C30.3524 9.01243 30.9645 9.14333 31.627 9.26758H31.6279L32.042 9.3418L32.0527 9.34375C32.3193 9.39432 32.5886 9.43787 32.8936 9.48926H32.8955C33.0439 9.51458 33.1432 9.52794 33.3262 9.55762H33.3271C33.699 9.61519 34.0819 9.67139 34.4756 9.72559L35.6895 9.88281L35.6943 9.88379C35.9057 9.91075 35.9538 9.91211 36.1963 9.94238C37.3803 10.0788 38.6426 10.2024 39.9727 10.3076C40.7376 10.3675 41.519 10.4235 42.3203 10.4727C43.5237 10.5465 44.7702 10.6066 46.0527 10.6523H46.0537C47.9802 10.7227 49.982 10.7578 52.0449 10.7578C54.108 10.7578 56.1142 10.7227 58.0371 10.6523L59.9336 10.5732C60.5561 10.5433 61.1687 10.5096 61.7705 10.4727C62.5722 10.4235 63.3571 10.3675 64.1182 10.3076L65.1045 10.2256C66.0745 10.1405 67.005 10.0455 67.8916 9.94336C68.1364 9.91279 68.1843 9.91085 68.3965 9.88379L68.4014 9.88281C68.8169 9.83201 69.2216 9.77979 69.6152 9.72559L70.7637 9.55762C70.8408 9.54486 70.9173 9.53328 70.9873 9.52246C71.062 9.51091 71.1301 9.50043 71.1973 9.48926L72.0508 9.3418H72.0527L72.459 9.26855C73.1223 9.14422 73.7329 9.01315 74.2979 8.87891C74.8582 8.74575 75.3565 8.60722 75.7939 8.46484H75.7959C76.1484 8.35077 76.4588 8.23715 76.7207 8.125L76.7227 8.12402C77.1754 7.93145 77.4648 7.75661 77.6318 7.62012C77.5852 7.58191 77.5218 7.53473 77.4365 7.48047C77.1257 7.28277 76.6466 7.06432 75.9805 6.83984C74.6541 6.39289 72.7519 5.97747 70.3799 5.62402C65.6469 4.91881 59.1873 4.48145 52.0488 4.48145H52.0381Z" fill="#966AFD" stroke="#3B0FA2" stroke-width="2"/>
</svg>
